<svg version="1" xmlns="http://www.w3.org/2000/svg" width="1433.333" height="1433.333" viewBox="0 0 1075.000000 1075.000000"><path d="M512.7 43.7c-.1 0-5.7.4-12.4.8-6.7.3-13 .7-14 .9-1 .2-4.9.7-8.6 1.1-3.7.3-7.6.8-8.5 1-.9.1-3.8.6-6.3.9-16.7 2.2-44.5 8.3-63.9 14-22.2 6.5-34.7 10.9-55 19.6-12.8 5.5-35.5 16.6-45.5 22.2-6.6 3.8-23.9 14.2-25 15-.5.5-6.4 4.5-12.9 8.9-12.5 8.4-30.8 22.6-43.6 33.7-7.7 6.7-38.6 37.4-42.9 42.7-1.4 1.7-4.8 5.7-7.6 9-30.7 35.6-59.9 84.4-78.1 130.4-11.3 28.5-22.6 67.3-25.8 88.6-.3 2.2-.8 5.1-1.1 6.5-1.3 6.2-1.6 7.7-2 11.5-.7 5.7-1.5 11.6-2 14.5-.2 1.4-.7 5.4-1 9-.3 3.6-.7 9-1 12-.3 3-.7 12.1-.9 20.2l-.5 14.8 121.7.1h353.5l2.7-.1V43.3l-9.6.1c-5.3.1-9.6.2-9.7.3zM885 401.7c-7 .6-19.6 2.5-24.5 3.8-7.3 1.9-21.4 7.5-25.7 10.2-2.1 1.2-4 2.3-4.4 2.3-1.7 0-16 10.9-22.6 17.3-21.6 20.9-34 47.3-36.4 77.9l-.6 7.8h239.5l-.7-8.9c-4-57.3-51.5-105.5-108-109.7-3.9-.3-8.4-.6-10.1-.7-1.6-.1-4.6-.1-6.5 0zM54.5 554.3c.3 7.8.7 17.1 1 20.7 1.6 18.1 1.5 17.1 3.5 32 1.5 10.9 4.9 29.2 7.2 39 1.1 4.7 2.2 9.5 2.4 10.7.5 2.8 6.7 23.9 9.3 31.8 15.6 48.1 40.8 96.6 70.9 136.7 5.9 7.9 11.7 15.4 12.9 16.8 1.1 1.4 4 4.7 6.3 7.5 11.1 13.1 33.3 36.1 43.5 45 40.9 35.8 80.8 61.8 124.8 81.4 2.6 1.1 6.6 3 9 4 6 2.7 22.1 8.9 29.2 11.2 3.3 1.1 6.9 2.4 8 2.8 7.6 3.3 47 13.3 63 16.1 3.3.5 7.1 1.2 8.5 1.5 1.4.3 7.9 1.2 14.5 2 6.6.9 13.4 1.8 15 2 17.7 2.6 77 2.6 96 0 1.7-.2 5.9-.7 9.5-1 3.6-.4 7.2-.8 8-1 .8-.1 5.1-.8 9.5-1.5 34-5 75.6-16.8 109-30.8 20.8-8.7 50.3-23.6 60.3-30.3 2.4-1.6 4.5-2.9 4.8-2.9 2.7 0 47.4-31.9 58-41.5.6-.6 4-3.5 7.5-6.5 7.9-6.8 18.5-16.9 29.4-28 10-10.2 13.3-13.9 30.4-34.5 3.3-4 13.8-18.1 17.1-23 1.9-2.8 3.7-5.2 4-5.5.9-.7 12.8-19.9 19.5-31.5C953.2 766 965.3 742 970 731c1.7-4.1 3.7-8.9 4.5-10.5 2.1-4.8 11.2-30.2 13.9-39 5.3-16.9 12.9-49.3 15-64 .6-4.4 1.8-11.8 2.1-13.5.3-1.3 1.2-10 2.1-18.5.8-7.6 1.8-26.9 1.8-35.5l.1-9.5-477.7-.2-477.7-.2.4 14.2z"/></svg>